<svg width="16" height="17" viewBox="0 0 16 17" fill="none" xmlns="http://www.w3.org/2000/svg">
<g id="check_list">
<path id="Oval" d="M15.5 8.59009C15.5 12.7322 12.1421 16.0901 8 16.0901C3.85786 16.0901 0.5 12.7322 0.5 8.59009C0.5 4.44795 3.85786 1.09009 8 1.09009C12.1421 1.09009 15.5 4.44795 15.5 8.59009Z" fill="#FF0000" stroke="#DB0000"/>
<path id="Vector" d="M10.7158 5.88589C10.6228 5.79216 10.5122 5.71776 10.3904 5.667C10.2685 5.61623 10.1378 5.59009 10.0058 5.59009C9.87379 5.59009 9.74308 5.61623 9.62122 5.667C9.49936 5.71776 9.38876 5.79216 9.2958 5.88589L8.0058 7.18589L6.7158 5.88589C6.52749 5.69758 6.2721 5.59179 6.0058 5.59179C5.7395 5.59179 5.4841 5.69758 5.2958 5.88589C5.10749 6.07419 5.00171 6.32958 5.00171 6.59589C5.00171 6.86219 5.10749 7.11758 5.2958 7.30589L6.5958 8.59589L5.2958 9.88589C5.20207 9.97885 5.12768 10.0895 5.07691 10.2113C5.02614 10.3332 5 10.4639 5 10.5959C5 10.7279 5.02614 10.8586 5.07691 10.9805C5.12768 11.1023 5.20207 11.2129 5.2958 11.3059C5.38876 11.3996 5.49936 11.474 5.62122 11.5248C5.74308 11.5755 5.87379 11.6017 6.0058 11.6017C6.13781 11.6017 6.26852 11.5755 6.39038 11.5248C6.51223 11.474 6.62284 11.3996 6.7158 11.3059L8.0058 10.0059L9.2958 11.3059C9.38876 11.3996 9.49936 11.474 9.62122 11.5248C9.74308 11.5755 9.87379 11.6017 10.0058 11.6017C10.1378 11.6017 10.2685 11.5755 10.3904 11.5248C10.5122 11.474 10.6228 11.3996 10.7158 11.3059C10.8095 11.2129 10.8839 11.1023 10.9347 10.9805C10.9855 10.8586 11.0116 10.7279 11.0116 10.5959C11.0116 10.4639 10.9855 10.3332 10.9347 10.2113C10.8839 10.0895 10.8095 9.97885 10.7158 9.88589L9.4158 8.59589L10.7158 7.30589C10.8095 7.21292 10.8839 7.10232 10.9347 6.98046C10.9855 6.8586 11.0116 6.7279 11.0116 6.59589C11.0116 6.46387 10.9855 6.33317 10.9347 6.21131C10.8839 6.08945 10.8095 5.97885 10.7158 5.88589Z" fill="white"/>
</g>
</svg>
