<svg width="16" height="17" viewBox="0 0 16 17" fill="none" xmlns="http://www.w3.org/2000/svg">
<g id="check_list">
<path id="Oval" d="M15.5 8.59009C15.5 12.7322 12.1421 16.0901 8 16.0901C3.85786 16.0901 0.5 12.7322 0.5 8.59009C0.5 4.44795 3.85786 1.09009 8 1.09009C12.1421 1.09009 15.5 4.44795 15.5 8.59009Z" fill="#34A853" stroke="#1A8D5A"/>
<path id="Vector" d="M10.3968 5.88689L7.56394 9.63406L6.34236 8.05275C6.22012 7.89573 6.04051 7.7937 5.84304 7.7691C5.64558 7.74451 5.44643 7.79936 5.28941 7.9216C5.13238 8.04384 5.03035 8.22345 5.00576 8.42092C4.98116 8.61838 5.03602 8.81753 5.15825 8.97456L6.97938 11.3053C7.04995 11.3946 7.13995 11.4667 7.24253 11.516C7.34512 11.5654 7.4576 11.5907 7.57143 11.5901C7.68588 11.5898 7.79875 11.5633 7.90138 11.5127C8.00401 11.462 8.09367 11.3885 8.16348 11.2978L11.5884 6.8012C11.7096 6.64219 11.7627 6.44153 11.736 6.24336C11.7093 6.04519 11.605 5.86574 11.446 5.7445C11.287 5.62325 11.0863 5.57014 10.8882 5.59684C10.69 5.62355 10.5105 5.72788 10.3893 5.88689H10.3968Z" fill="white"/>
</g>
</svg>
