<svg width="92" height="23" viewBox="0 0 92 23" fill="none" xmlns="http://www.w3.org/2000/svg">
<g id="Group 8">
<path id="Vector" d="M2.85596 11.9724C2.86573 11.3537 3.08229 10.8603 3.52518 10.5851C3.92249 10.3376 4.08532 10.0038 4.23349 9.61957C5.06718 7.45231 5.89923 5.28506 6.72966 3.11618C6.899 2.67328 7.0716 2.23039 7.22303 1.78098C7.3191 1.49114 7.43797 1.32831 7.79945 1.34297C8.61522 1.37716 9.43262 1.35437 10.294 1.35437C9.66872 3.87984 9.04834 6.37601 8.41494 8.93405C9.79084 8.61979 11.0984 8.32345 12.401 8.01082C12.471 7.99291 12.5671 7.80566 12.5459 7.72099C12.0737 5.78006 11.5885 3.84239 11.1065 1.9031C11.0642 1.73539 11.0365 1.56279 10.9942 1.35437C11.9109 1.35437 12.8146 1.34785 13.7183 1.36577C13.8062 1.36739 13.9316 1.51231 13.9723 1.61652C14.6399 3.32297 15.2977 5.0343 15.9718 6.78146C16.6183 6.46557 17.1312 6.02268 17.4845 5.35834C17.7467 5.95429 17.6148 6.60072 17.2549 7.01919C16.5499 7.8366 15.5696 8.1541 14.5992 8.42603C12.725 8.95034 10.8297 9.40138 8.93762 9.86381C7.19209 10.2904 5.42051 10.6291 3.7792 11.4042C3.47796 11.5475 3.20767 11.7526 2.85596 11.9708" fill="#003264"/>
<path id="Vector_2" d="M21.3386 20.7717C20.7768 20.674 20.2623 20.5763 19.7461 20.4949C18.9401 20.3695 18.1357 20.249 17.3281 20.1399C16.8413 20.0748 16.3479 20.0585 15.8675 19.9673C15.7324 19.9413 15.563 19.7491 15.5256 19.6026C15.2227 18.4432 14.9508 17.2758 14.6626 16.1115C14.4672 15.3251 14.2637 14.5402 14.0667 13.7684C15.3937 13.2978 16.7191 12.8289 18.1016 12.3388C19.1485 15.0662 20.2346 17.8929 21.3402 20.7717" fill="#003264"/>
<path id="Vector_3" d="M0.656482 18.1046C0.656482 17.8701 0.6288 17.6324 0.661366 17.4028C0.833965 16.1734 1.63834 15.3853 2.62508 14.778C4.10357 13.8678 5.77583 13.4688 7.44482 13.078C8.80607 12.7589 10.1673 12.4365 11.5204 12.0799C13.1015 11.6614 14.6907 11.2625 16.2392 10.7431C17.4995 10.3197 18.6589 9.6749 19.2564 8.25504C19.4974 8.82494 19.4681 9.31994 19.3607 9.81168C19.1132 10.9482 18.2681 11.5719 17.2748 11.9105C15.3502 12.5667 13.3946 13.1318 11.4406 13.6919C9.12522 14.3546 6.79188 14.9555 4.47645 15.6165C3.38224 15.9292 2.39224 16.4779 1.52925 17.2253C1.23941 17.476 1.0147 17.805 0.759062 18.098C0.724868 18.0997 0.690676 18.1013 0.656482 18.1029" fill="#003264"/>
<path id="Vector_4" d="M1.79276 14.791C1.5306 14.366 1.62341 13.7863 1.94744 13.3337C2.50432 12.5521 3.31521 12.1336 4.17657 11.8763C5.8244 11.383 7.49828 10.9743 9.16728 10.5558C11.4664 9.97939 13.8161 9.58534 16.0322 8.70444C16.9701 8.33156 17.7826 7.7698 18.2613 6.8319C18.2922 6.77003 18.3411 6.7163 18.3883 6.64954C18.7628 7.32365 18.4762 8.34459 17.9552 8.921C17.2208 9.73026 16.2536 10.1178 15.2457 10.3946C13.3683 10.9108 11.4762 11.3732 9.59064 11.8617C7.9363 12.2916 6.27381 12.6954 4.63249 13.1692C3.56759 13.4753 2.56945 13.9492 1.79276 14.7926" fill="#003264"/>
<path id="Vector_5" d="M0.0016274 20.7635C0.340312 19.1662 1.13654 17.9433 2.58084 17.1504C3.86393 16.4453 5.25286 16.0757 6.72158 15.6491C6.619 16.1066 6.54084 16.4925 6.4464 16.8736C6.22495 17.7691 5.98885 18.6631 5.77391 19.5602C5.70227 19.8615 5.5541 19.9641 5.23332 19.9966C4.16028 20.1041 3.09049 20.2523 2.02234 20.407C1.34334 20.5046 0.670855 20.6447 0 20.7635" fill="#003264"/>
<path id="Vector_6" d="M43.7131 1.26482V10.279C43.7131 15.4961 40.9157 17.494 36.4574 17.494C31.9991 17.494 29.2034 15.4961 29.2034 10.279V1.26482H33.2008V9.27925C33.2008 12.697 34.4807 13.9964 36.459 13.9964C38.4374 13.9964 39.7172 12.697 39.7172 9.27925V1.26482H43.7147H43.7131Z" fill="#003264"/>
<path id="Vector_7" d="M61.2008 7.0599C61.2008 11.497 57.604 12.7166 53.9256 12.7166H50.7081V17.253H46.7107V1.26482H53.7254C57.2034 1.26482 61.1992 2.30367 61.1992 7.0599M57.1627 7.07944C57.1627 5.74099 56.303 4.86171 54.1243 4.86171H50.7065V9.11805H54.1243C56.303 9.11805 57.1627 8.25832 57.1627 7.07944Z" fill="#003264"/>
<path id="Vector_8" d="M69.9955 14.7943C71.7948 14.7943 73.5338 14.2749 75.0514 13.7343V16.5919C74.0516 17.1309 72.0732 17.4516 69.9744 17.4516C65.1383 17.4516 62.6194 15.4733 62.6194 11.9757C62.6194 8.47813 65.1172 6.26041 68.9746 6.26041C73.3319 6.26041 75.4894 8.79891 75.4894 12.7557H66.7162C67.0353 13.8955 67.9357 14.7943 69.9939 14.7943M66.6364 11.0574H71.6124C71.4121 9.73844 70.6338 9.15876 68.9746 9.15876C67.6362 9.19784 66.8367 9.81822 66.6364 11.0574Z" fill="#003264"/>
<path id="Vector_9" d="M91.9998 1.26482V10.279C91.9998 15.4961 89.2024 17.494 84.7442 17.494C80.2859 17.494 77.4885 15.4961 77.4885 10.279V1.26482H81.486V9.27925C81.486 12.697 82.7658 13.9964 84.7442 13.9964C86.7226 13.9964 88.0024 12.697 88.0024 9.27925V1.26482H91.9998Z" fill="#003264"/>
<path id="Vector_10" d="M24.8461 0.944031H23.7502V22.9504H24.8461V0.944031Z" fill="#F8A900"/>
<g id="Group">
<path id="Vector_11" d="M31.5824 19.8436V21.6624C31.5824 22.3511 31.8885 22.6426 32.2988 22.6426C32.7547 22.6426 33.0462 22.3414 33.0462 21.6624V19.8436H33.4468V21.6347C33.4468 22.5791 32.9501 22.9666 32.2842 22.9666C31.6556 22.9666 31.1802 22.6068 31.1802 21.6542V19.8436H31.5807H31.5824Z" fill="#003264"/>
<path id="Vector_12" d="M34.1355 22.9162V19.8436H34.5686L35.5537 21.3986C35.7817 21.7585 35.9592 22.0825 36.1057 22.3967L36.1155 22.3919C36.0797 21.9815 36.0699 21.607 36.0699 21.1283V19.842H36.4444V22.9145H36.0439L35.0685 21.3546C34.8536 21.0127 34.6484 20.661 34.4937 20.3288L34.4807 20.3337C34.5035 20.7212 34.5133 21.0909 34.5133 21.6005V22.9129H34.1388L34.1355 22.9162Z" fill="#003264"/>
<path id="Vector_13" d="M37.5321 19.8436V22.9162H37.1348V19.8436H37.5321Z" fill="#003264"/>
<path id="Vector_14" d="M38.8998 22.9162L37.8967 19.8436H38.325L38.8037 21.3579C38.9356 21.7731 39.0496 22.146 39.1326 22.5075H39.1424C39.2287 22.1525 39.3573 21.765 39.4941 21.3628L40.0135 19.8452H40.4369L39.3378 22.9178H38.8998V22.9162Z" fill="#003264"/>
<path id="Vector_15" d="M42.3601 21.4751H41.165V22.5824H42.4969V22.9145H40.7693V19.842H42.4285V20.1741H41.165V21.1446H42.3601V21.4735V21.4751Z" fill="#003264"/>
<path id="Vector_16" d="M43.0114 19.8843C43.2117 19.8436 43.4999 19.8208 43.7734 19.8208C44.1968 19.8208 44.4703 19.899 44.6625 20.0716C44.8172 20.2083 44.9035 20.4184 44.9035 20.6545C44.9035 21.0599 44.6478 21.3286 44.3238 21.4393V21.4524C44.5615 21.5338 44.7016 21.7536 44.7748 22.0727C44.8758 22.501 44.9474 22.7973 45.0126 22.9162H44.6022C44.5518 22.8299 44.4834 22.5645 44.3971 22.1818C44.3059 21.7585 44.1414 21.5989 43.7816 21.5842H43.4071V22.9162H43.0098V19.8843H43.0114ZM43.4087 21.2846H43.8141C44.2375 21.2846 44.5078 21.0518 44.5078 20.7017C44.5078 20.3044 44.2212 20.1318 43.8011 20.1269C43.609 20.1269 43.4722 20.1448 43.4087 20.1628V21.2846Z" fill="#003264"/>
<path id="Vector_17" d="M45.4098 22.4326C45.5873 22.5417 45.8478 22.6329 46.1214 22.6329C46.5268 22.6329 46.7645 22.4179 46.7645 22.1086C46.7645 21.822 46.6001 21.6575 46.1849 21.498C45.6833 21.3205 45.374 21.0599 45.374 20.6268C45.374 20.1481 45.7713 19.7931 46.3672 19.7931C46.6815 19.7931 46.9094 19.8664 47.0462 19.9429L46.9371 20.267C46.8362 20.2116 46.631 20.1204 46.3542 20.1204C45.9341 20.1204 45.7745 20.3712 45.7745 20.5812C45.7745 20.8678 45.9618 21.0095 46.3851 21.1739C46.9046 21.3742 47.17 21.625 47.17 22.076C47.17 22.5498 46.8183 22.9602 46.0937 22.9602C45.7973 22.9602 45.4733 22.8739 45.3088 22.7648L45.4098 22.4326Z" fill="#003264"/>
<path id="Vector_18" d="M48.1095 19.8436V22.9162H47.7122V19.8436H48.1095Z" fill="#003264"/>
<path id="Vector_19" d="M48.8015 19.8843C49.0425 19.8485 49.3307 19.8208 49.645 19.8208C50.2149 19.8208 50.6203 19.9527 50.889 20.2035C51.1625 20.4542 51.3221 20.8092 51.3221 21.3074C51.3221 21.8057 51.1674 22.2193 50.8792 22.5026C50.5926 22.7892 50.1172 22.9455 49.5212 22.9455C49.2379 22.9455 49.0018 22.9325 48.8015 22.9097V19.8876V19.8843ZM49.1988 22.6019C49.2998 22.6198 49.4447 22.6247 49.5994 22.6247C50.4477 22.6247 50.9085 22.1509 50.9085 21.3205C50.9134 20.5959 50.5031 20.1351 49.6645 20.1351C49.4593 20.1351 49.3047 20.153 49.1988 20.1758V22.6019Z" fill="#003264"/>
<path id="Vector_20" d="M52.2763 21.949L51.9572 22.9162H51.5469L52.5906 19.8436H53.0693L54.1179 22.9162H53.6946L53.3657 21.949H52.2763ZM53.2843 21.6396L52.983 20.7555C52.9146 20.5552 52.8691 20.3728 52.8235 20.1953H52.8137C52.7681 20.3777 52.7176 20.5649 52.659 20.7522L52.3578 21.6413H53.2826L53.2843 21.6396Z" fill="#003264"/>
<path id="Vector_21" d="M54.5691 19.8843C54.8101 19.8485 55.0983 19.8208 55.4125 19.8208C55.9824 19.8208 56.3879 19.9527 56.6566 20.2035C56.9301 20.4542 57.0897 20.8092 57.0897 21.3074C57.0897 21.8057 56.935 22.2193 56.6468 22.5026C56.3602 22.7892 55.8847 22.9455 55.2888 22.9455C55.0055 22.9455 54.7694 22.9325 54.5691 22.9097V19.8876V19.8843ZM54.9664 22.6019C55.0673 22.6198 55.2123 22.6247 55.367 22.6247C56.2153 22.6247 56.6761 22.1509 56.6761 21.3205C56.681 20.5959 56.2707 20.1351 55.4321 20.1351C55.2269 20.1351 55.0722 20.153 54.9664 20.1758V22.6019Z" fill="#003264"/>
<path id="Vector_22" d="M58.571 19.8794C58.7631 19.8469 59.0139 19.8208 59.333 19.8208C59.7254 19.8208 60.012 19.912 60.1944 20.0764C60.3637 20.223 60.463 20.4461 60.463 20.7196C60.463 20.9932 60.3816 21.2163 60.2253 21.3758C60.0153 21.5989 59.6733 21.7129 59.2858 21.7129C59.1669 21.7129 59.0578 21.708 58.9666 21.6852V22.9162H58.5693V19.8794H58.571ZM58.9683 21.3612C59.0546 21.384 59.1637 21.3937 59.2972 21.3937C59.7759 21.3937 60.0674 21.1609 60.0674 20.7375C60.0674 20.3142 59.7808 20.1351 59.3428 20.1351C59.1702 20.1351 59.0367 20.1481 58.9683 20.1676V21.3628V21.3612Z" fill="#003264"/>
<path id="Vector_23" d="M62.5884 21.4751H61.3932V22.5824H62.7252V22.9145H60.9976V19.842H62.6568V20.1741H61.3932V21.1446H62.5884V21.4735V21.4751Z" fill="#003264"/>
<path id="Vector_24" d="M63.2411 19.8843C63.4414 19.8436 63.7296 19.8208 64.0032 19.8208C64.4265 19.8208 64.7001 19.899 64.8922 20.0716C65.0469 20.2083 65.1332 20.4184 65.1332 20.6545C65.1332 21.0599 64.8776 21.3286 64.5535 21.4393V21.4524C64.7913 21.5338 64.9313 21.7536 65.0046 22.0727C65.1055 22.501 65.1772 22.7973 65.2423 22.9162H64.832C64.7815 22.8299 64.7131 22.5645 64.6268 22.1818C64.5356 21.7585 64.3712 21.5989 64.0113 21.5842H63.6368V22.9162H63.2395V19.8843H63.2411ZM63.6384 21.2846H64.0439C64.4672 21.2846 64.7375 21.0518 64.7375 20.7017C64.7375 20.3044 64.4509 20.1318 64.0308 20.1269C63.8387 20.1269 63.7019 20.1448 63.6384 20.1628V21.2846Z" fill="#003264"/>
<path id="Vector_25" d="M66.0907 19.8436V21.6624C66.0907 22.3512 66.3968 22.6426 66.8071 22.6426C67.263 22.6426 67.5545 22.3414 67.5545 21.6624V19.8436H67.9551V21.6347C67.9551 22.5791 67.4584 22.9667 66.7925 22.9667C66.1639 22.9667 65.6885 22.6068 65.6885 21.6543V19.8436H66.089H66.0907Z" fill="#003264"/>
<path id="Vector_26" d="M68.989 21.949L68.6698 22.9162H68.2595L69.3033 19.8436H69.782L70.8306 22.9162H70.4072L70.0783 21.949H68.989ZM69.9969 21.6396L69.6957 20.7555C69.6273 20.5552 69.5817 20.3728 69.5361 20.1953H69.5263C69.4807 20.3777 69.4303 20.5649 69.3716 20.7522L69.0704 21.6413H69.9953L69.9969 21.6396Z" fill="#003264"/>
<path id="Vector_27" d="M71.2834 22.9162V19.8436H71.7166L72.7017 21.3986C72.9296 21.7585 73.1071 22.0825 73.2537 22.3967L73.2634 22.3919C73.2276 21.9815 73.2179 21.607 73.2179 21.1283V19.842H73.5924V22.9145H73.1918L72.2165 21.3546C72.0015 21.0127 71.7964 20.661 71.6417 20.3288L71.6286 20.3337C71.6514 20.7212 71.6612 21.0909 71.6612 21.6005V22.9129H71.2867L71.2834 22.9162Z" fill="#003264"/>
<path id="Vector_28" d="M74.7793 21.949L74.4601 22.9162H74.0498L75.0935 19.8436H75.5723L76.6209 22.9162H76.1975L75.8686 21.949H74.7793ZM75.7872 21.6396L75.486 20.7555C75.4176 20.5552 75.372 20.3728 75.3264 20.1953H75.3166C75.271 20.3777 75.2205 20.5649 75.1619 20.7522L74.8607 21.6413H75.7856L75.7872 21.6396Z" fill="#003264"/>
<path id="Vector_29" d="M78.4364 19.8436V21.6624C78.4364 22.3512 78.7425 22.6426 79.1528 22.6426C79.6087 22.6426 79.9002 22.3414 79.9002 21.6624V19.8436H80.3008V21.6347C80.3008 22.5791 79.8041 22.9667 79.1382 22.9667C78.5096 22.9667 78.0342 22.6068 78.0342 21.6543V19.8436H78.4347H78.4364Z" fill="#003264"/>
<path id="Vector_30" d="M80.9895 22.9162V19.8436H81.4226L82.4077 21.3986C82.6357 21.7585 82.8132 22.0825 82.9597 22.3967L82.9695 22.3919C82.9337 21.9815 82.9239 21.607 82.9239 21.1283V19.842H83.2984V22.9145H82.8979L81.9225 21.3546C81.7076 21.0127 81.5024 20.661 81.3477 20.3288L81.3347 20.3337C81.3575 20.7212 81.3673 21.0909 81.3673 21.6005V22.9129H80.9928L80.9895 22.9162Z" fill="#003264"/>
<path id="Vector_31" d="M84.3861 19.8436V22.9162H83.9888V19.8436H84.3861Z" fill="#003264"/>
<path id="Vector_32" d="M87.7046 21.3482C87.7046 22.4065 87.0615 22.9667 86.2782 22.9667C85.495 22.9667 84.8975 22.3382 84.8975 21.4068C84.8975 20.4314 85.5032 19.7931 86.3238 19.7931C87.1445 19.7931 87.7046 20.4363 87.7046 21.3482ZM85.3208 21.3986C85.3208 22.0548 85.6758 22.6426 86.301 22.6426C86.9263 22.6426 87.2862 22.063 87.2862 21.3661C87.2862 20.7555 86.967 20.1172 86.3059 20.1172C85.6449 20.1172 85.3208 20.7229 85.3208 21.3986Z" fill="#003264"/>
<path id="Vector_33" d="M88.2207 22.9162V19.8436H88.6538L89.6389 21.3986C89.8669 21.7585 90.0444 22.0825 90.1909 22.3967L90.2007 22.3919C90.1649 21.9815 90.1551 21.607 90.1551 21.1283V19.842H90.5296V22.9145H90.1291L89.1537 21.3546C88.9388 21.0127 88.7336 20.661 88.5789 20.3288L88.5659 20.3337C88.5887 20.7212 88.5985 21.0909 88.5985 21.6005V22.9129H88.224L88.2207 22.9162Z" fill="#003264"/>
</g>
</g>
</svg>
