<svg width="13" height="14" viewBox="0 0 13 14" fill="none" xmlns="http://www.w3.org/2000/svg">
<g id="list_alt">
<path id="Vector" d="M6.5 5.46509H8.66667C8.96458 5.46509 9.20833 5.22134 9.20833 4.92342C9.20833 4.6255 8.96458 4.38175 8.66667 4.38175H6.5C6.20208 4.38175 5.95833 4.6255 5.95833 4.92342C5.95833 5.22134 6.20208 5.46509 6.5 5.46509ZM6.5 7.63175H8.66667C8.96458 7.63175 9.20833 7.388 9.20833 7.09009C9.20833 6.79217 8.96458 6.54842 8.66667 6.54842H6.5C6.20208 6.54842 5.95833 6.79217 5.95833 7.09009C5.95833 7.388 6.20208 7.63175 6.5 7.63175ZM6.5 9.79842H8.66667C8.96458 9.79842 9.20833 9.55467 9.20833 9.25675C9.20833 8.95884 8.96458 8.71509 8.66667 8.71509H6.5C6.20208 8.71509 5.95833 8.95884 5.95833 9.25675C5.95833 9.55467 6.20208 9.79842 6.5 9.79842ZM3.79167 4.38175H4.875V5.46509H3.79167V4.38175ZM3.79167 6.54842H4.875V7.63175H3.79167V6.54842ZM3.79167 8.71509H4.875V9.79842H3.79167V8.71509ZM10.8333 2.21509H2.16667C1.86875 2.21509 1.625 2.45884 1.625 2.75675V11.4234C1.625 11.7213 1.86875 11.9651 2.16667 11.9651H10.8333C11.1313 11.9651 11.375 11.7213 11.375 11.4234V2.75675C11.375 2.45884 11.1313 2.21509 10.8333 2.21509ZM10.2917 10.8818H2.70833V3.29842H10.2917V10.8818Z" fill="#286BA1"/>
</g>
</svg>
