<svg width="13" height="14" viewBox="0 0 13 14" fill="none" xmlns="http://www.w3.org/2000/svg">
<g id="Layer 2">
<g id="person-done">
<path id="Vector" d="M11.7324 2.48232C11.6246 2.38763 11.4836 2.33959 11.3404 2.34873C11.1972 2.35787 11.0635 2.42344 10.9686 2.53107L9.95573 3.69565L9.61448 3.31107C9.51895 3.20332 9.38452 3.13794 9.24079 3.12931C9.09705 3.12067 8.95576 3.16949 8.84802 3.26503C8.74028 3.36056 8.6749 3.49498 8.66626 3.63872C8.65763 3.78246 8.70645 3.92374 8.80198 4.03148L9.5549 4.87648C9.60615 4.93328 9.66885 4.97857 9.73887 5.00938C9.80889 5.04019 9.88465 5.05582 9.96115 5.05523C10.0371 5.05437 10.1121 5.03753 10.1812 5.0058C10.2502 4.97407 10.3118 4.92817 10.362 4.87107L11.7757 3.24607C11.8711 3.13895 11.9201 2.99841 11.9119 2.85523C11.9038 2.71206 11.8392 2.57796 11.7324 2.48232Z" fill="#286BA1"/>
<path id="Vector_2" d="M5.41667 6.13857C5.84519 6.13857 6.2641 6.0115 6.6204 5.77342C6.97671 5.53535 7.25442 5.19696 7.41841 4.80105C7.5824 4.40515 7.6253 3.9695 7.5417 3.54921C7.4581 3.12892 7.25175 2.74285 6.94873 2.43984C6.64572 2.13683 6.25965 1.93047 5.83936 1.84687C5.41907 1.76327 4.98343 1.80618 4.58752 1.97017C4.19161 2.13416 3.85323 2.41186 3.61515 2.76817C3.37707 3.12448 3.25 3.54338 3.25 3.9719C3.25 4.54654 3.47827 5.09764 3.8846 5.50397C4.29093 5.9103 4.84203 6.13857 5.41667 6.13857ZM5.41667 2.88857C5.63093 2.88857 5.84038 2.95211 6.01853 3.07115C6.19669 3.19018 6.33554 3.35938 6.41754 3.55733C6.49953 3.75528 6.52098 3.97311 6.47918 4.18325C6.43738 4.3934 6.33421 4.58643 6.1827 4.73794C6.03119 4.88944 5.83816 4.99262 5.62801 5.03442C5.41787 5.07622 5.20005 5.05477 5.00209 4.97277C4.80414 4.89078 4.63495 4.75193 4.51591 4.57377C4.39687 4.39562 4.33333 4.18617 4.33333 3.9719C4.33333 3.68459 4.44747 3.40904 4.65063 3.20587C4.8538 3.00271 5.12935 2.88857 5.41667 2.88857Z" fill="#286BA1"/>
<path id="Vector_3" d="M5.41667 7.22191C4.41105 7.22191 3.44663 7.62139 2.73555 8.33246C2.02448 9.04354 1.625 10.008 1.625 11.0136C1.625 11.1572 1.68207 11.295 1.78365 11.3966C1.88523 11.4982 2.02301 11.5552 2.16667 11.5552C2.31033 11.5552 2.4481 11.4982 2.54968 11.3966C2.65126 11.295 2.70833 11.1572 2.70833 11.0136C2.70833 10.2953 2.99367 9.60641 3.50159 9.09849C4.0095 8.59058 4.69837 8.30524 5.41667 8.30524C6.13496 8.30524 6.82384 8.59058 7.33175 9.09849C7.83966 9.60641 8.125 10.2953 8.125 11.0136C8.125 11.1572 8.18207 11.295 8.28365 11.3966C8.38523 11.4982 8.52301 11.5552 8.66667 11.5552C8.81033 11.5552 8.9481 11.4982 9.04968 11.3966C9.15126 11.295 9.20833 11.1572 9.20833 11.0136C9.20833 10.008 8.80885 9.04354 8.09778 8.33246C7.3867 7.62139 6.42228 7.22191 5.41667 7.22191Z" fill="#286BA1"/>
</g>
</g>
</svg>
