<svg width="13" height="14" viewBox="0 0 13 14" fill="none" xmlns="http://www.w3.org/2000/svg">
<g id="payment">
<path id="Vector" d="M10.8333 2.75677H2.16659C1.56534 2.75677 1.08867 3.23886 1.08867 3.84011L1.08325 10.3401C1.08325 10.9414 1.56534 11.4234 2.16659 11.4234H10.8333C11.4345 11.4234 11.9166 10.9414 11.9166 10.3401V3.84011C11.9166 3.23886 11.4345 2.75677 10.8333 2.75677ZM10.2916 10.3401H2.70825C2.41034 10.3401 2.16659 10.0964 2.16659 9.79844V7.09011H10.8333V9.79844C10.8333 10.0964 10.5895 10.3401 10.2916 10.3401ZM10.8333 4.92344H2.16659V4.38177C2.16659 4.08386 2.41034 3.84011 2.70825 3.84011H10.2916C10.5895 3.84011 10.8333 4.08386 10.8333 4.38177V4.92344Z" fill="#286BA1"/>
</g>
</svg>
